inDegrees=no
num_controls=7
num_derivatives=13
num_iterations=164
num_multipliers=7
num_parameters=0
num_slacks=7
num_states=26
objective=0.543522
objective_accelerations=0.063436
objective_balance=0.003395
objective_effort=0.047322
objective_height=0.420175
objective_ligament=0.009195
solver_duration=1956.358322
status=Solve_Succeeded
success=true
DataType=double
version=3
OpenSimVersion=4.5
endheader
time	/jointset/ground_pelvis/pelvis_tilt/value	/jointset/ground_pelvis/pelvis_tx/value	/jointset/ground_pelvis/pelvis_ty/value	/jointset/hip_r/hip_flexion_r/value	/jointset/hip_r/hip_adduction_r/value	/jointset/hip_r/hip_rotation_r/value	/jointset/back/lumbar_extension/value	/jointset/patellofemoral_r/patellar_flexion_r/value	/jointset/knee_r/knee_flexion_r/value	/jointset/knee_r/knee_adduction_r/value	/jointset/knee_r/knee_rotation_r/value	/jointset/ankle_r/ankle_angle_r/value	/jointset/subtalar_r/subtalar_angle_r/value	/jointset/ground_pelvis/pelvis_tilt/speed	/jointset/ground_pelvis/pelvis_tx/speed	/jointset/ground_pelvis/pelvis_ty/speed	/jointset/hip_r/hip_flexion_r/speed	/jointset/hip_r/hip_adduction_r/speed	/jointset/hip_r/hip_rotation_r/speed	/jointset/back/lumbar_extension/speed	/jointset/patellofemoral_r/patellar_flexion_r/speed	/jointset/knee_r/knee_flexion_r/speed	/jointset/knee_r/knee_adduction_r/speed	/jointset/knee_r/knee_rotation_r/speed	/jointset/ankle_r/ankle_angle_r/speed	/jointset/subtalar_r/subtalar_angle_r/speed	/forceset/tau_hip_flexion_r	/forceset/tau_hip_adduction_r	/forceset/tau_hip_rotation_r	/forceset/tau_knee_flexion_r	/forceset/tau_ankle_angle_r	/forceset/tau_subtalar_angle_r	/forceset/tau_lumbar_extension	lambda_cid13_p0	lambda_cid14_p0	lambda_cid14_p1	lambda_cid14_p2	lambda_cid14_p3	lambda_cid14_p4	lambda_cid14_p5	/jointset/ground_pelvis/pelvis_tilt/accel	/jointset/ground_pelvis/pelvis_tx/accel	/jointset/ground_pelvis/pelvis_ty/accel	/jointset/hip_r/hip_flexion_r/accel	/jointset/hip_r/hip_adduction_r/accel	/jointset/hip_r/hip_rotation_r/accel	/jointset/back/lumbar_extension/accel	/jointset/patellofemoral_r/patellar_flexion_r/accel	/jointset/knee_r/knee_flexion_r/accel	/jointset/knee_r/knee_adduction_r/accel	/jointset/knee_r/knee_rotation_r/accel	/jointset/ankle_r/ankle_angle_r/accel	/jointset/subtalar_r/subtalar_angle_r/accel	gamma_cid13_p0	gamma_cid14_p0	gamma_cid14_p1	gamma_cid14_p2	gamma_cid14_p3	gamma_cid14_p4	gamma_cid14_p5
1	-0.3373430400451123	-0.02106752097500418	0.6070056368269421	1.636434978539214	-0.2313549553752511	-0.08924043660110464	-0.436329945731437	1.52578734581894	1.525787345818717	-0.1543234370069344	0.1715735514744061	0.4363317592672601	0.1127245891633938	-0.003158101334328518	0.002168918269728753	0.01672228653523091	-0.04073287093426355	0.002312652740452552	-0.00935052796880298	-2.904252100440918e-05	-0.04917930173962705	-0.04917930173962363	0.0006291680991947659	7.424349894338556e-05	-0.005969013445544276	0.001763337052050738	-0.3160156798116308	0.009068674672156444	0.0002679276325634724	-0.5330320040783645	0.01811100525263644	0.0119605248563107	0.3229249897563834	-0.04291932907158416	-44.69838346686849	-4.278667685893932	3.023101467070633	20.68828631434969	-824.5336248407924	66.01291862480149	1.196734200741982	-0.01196334963524758	2.146633137829786	-6.186312617156094	0.2008945063421672	-0.1861426535283129	-0.01064002004512233	-6.022066080935381	-6.022066080935732	1.189063026174179	0.1186084647249795	-1.209802710479636	-0.1405307958444214	7.236000074801881e-09	1.335045856039574e-08	4.030809334239848e-08	5.601038535808521e-08	-6.833336058371549e-09	-8.825991013728324e-09	9.725956052601718e-08
1.01	-0.3373152987842383	-0.02104646941356205	0.6072800288754775	1.635719205384734	-0.2313217935730352	-0.08933995898319179	-0.436330236643185	1.524994792508488	1.524994792508289	-0.1542544225654627	0.1715797491240666	0.4362113990138438	0.1127350299214462	0.0087090665722674	0.002039843841716753	0.03815042264931773	-0.1024062615128906	0.004320697938011146	-0.01055504923675179	-3.796361483897721e-05	-0.1093313620941547	-0.1093313620941553	0.01317242368026743	0.001161891743601479	-0.0181227635711004	0.0003183769202672994	-0.3158442047873766	0.009110927154271793	0.0003346330241700945	-0.5326646077628876	0.01798488948497548	0.01195825743745764	0.3227626822473624	-0.04293702614384914	-44.7235162827718	-4.28167819147223	3.020869042232721	20.74180071145006	-824.2434035528827	65.9838752337605	1.182120112931439	-0.01361570103191649	2.140045185353451	-6.155522658047454	0.2009247945765312	-0.08776185672357667	0.0026582779398175	-6.011779244325388	-6.011779244325761	1.286758434895046	0.1033675427915483	-1.221119316176542	-0.1474158336354856	1.477451185337358e-08	2.902870606319891e-08	8.934194059060181e-08	1.23308778404509e-07	-1.830958909824175e-08	-1.783136672284838e-08	2.133147192562391e-07
1.02	-0.3371688034388357	-0.02102675583872958	0.6077685305525847	1.634387164248502	-0.231268518265221	-0.08945155757661773	-0.4363308814794723	1.523600717948167	1.523600717947993	-0.1540600152460136	0.1715967281638651	0.4359689096286541	0.1127308336358228	0.02059271557138491	0.001901320947798167	0.05954421224961483	-0.1639864672847757	0.006335353860122165	-0.01176577023651667	-9.982742897641458e-05	-0.1694835517132395	-0.1694835517132423	0.02570774369418909	0.002230521526472767	-0.03039483979997418	-0.001164071683123485	-0.3156727297631254	0.009153179636388283	0.000401338415759421	-0.5322972114474118	0.01785877371731524	0.01195599001860722	0.3226003747383385	-0.04296489181334361	-44.75699192482744	-4.28136026774142	3.012635117589657	20.8222025962367	-824.0755374134689	65.991726145581	1.200030419246302	-0.0138530428165641	2.13976383507184	-6.167675655807679	0.2022166512526516	-0.1873825998915258	-0.02122856410571821	-6.022091933846799	-6.022091933846791	1.187475912743978	0.1148047723676199	-1.233467931143166	-0.148028490165891	2.177222300593213e-08	4.322502841656532e-08	1.363369012961296e-07	1.879105363156857e-07	-2.759559965910915e-08	-2.567464619794379e-08	3.221725020683011e-07
1.03	-0.3369033734630114	-0.0210083702375997	0.6084706911916201	1.632439940206809	-0.2311951076562105	-0.08957540112159949	-0.4363320134955825	1.521605378537366	1.5216053785372	-0.1537404123148569	0.1716242984584275	0.4356031905860476	0.1127115863531619	0.03249708553063829	0.001784679251416804	0.08087155029772412	-0.2254274587296472	0.008343261116617547	-0.01300606851930763	-9.539569223742929e-05	-0.2295585530019779	-0.2295585530019813	0.03820863144900496	0.003279346113245092	-0.04276035471650479	-0.002695978190525918	-0.3154773031226171	0.009157859439435635	0.0005519273120581341	-0.531506075025272	0.01787205823217022	0.01193718929274516	0.3224966833621504	-0.04299224226004833	-44.71897788643773	-4.272004387833858	2.998733255892239	20.72726564567146	-823.5656255459194	65.96426142642616	1.186221256659639	-0.009245165058517489	2.126757252038098	-6.127668842963607	0.1995863346798374	-0.09280251691549762	0.01595605766084719	-5.996343404884658	-5.99634340488474	1.280756083486046	0.09936168506440021	-1.239799988268223	-0.1573022728544883	2.876441578475584e-08	5.740622908473338e-08	1.833110570369362e-07	2.524847775418089e-07	-3.685926080692548e-08	-3.350606754820221e-08	4.309568422689531e-07
1.04	-0.3365187835931157	-0.02099088613983554	0.6093856329036083	1.629879234659843	-0.2311017162602683	-0.08971173746429778	-0.4363321657912989	1.519010061277978	1.519010061277818	-0.1532959283308229	0.1716622450755048	0.4351134750510036	0.1126767138970617	0.04442469438568351	0.001721020274655992	0.1021004268401363	-0.2866827683399871	0.0103315112463865	-0.01426432977980291	9.611664838712525e-05	-0.2894791214306083	-0.2894791214306121	0.05068395426924661	0.004305786029312021	-0.05519413828744413	-0.004289106371011207	-0.3152818764820998	0.009162539242485238	0.0007025162083432098	-0.5307149386031331	0.01788534274702437	0.01191838856688692	0.3223929919859712	-0.0430298073469847	-44.68943496158466	-4.259401637726668	2.978910392105066	20.65983294965936	-823.1798234978781	65.97320895047029	1.204678198404673	-0.003256498892454095	2.120071533932414	-6.130539288901326	0.1982852259073655	-0.1909751954323915	0.01618755667142326	-5.991205361825202	-5.991205361825134	1.182362925829134	0.110327838226542	-1.247121662024908	-0.160272824782463	3.486487880261231e-08	6.713227265650558e-08	2.235764072421068e-07	3.083078183462122e-07	-3.940614974255485e-08	-4.165597444334748e-08	5.215299578610573e-07
1.05	-0.336015253610548	-0.02097360408748442	0.6105123330519661	1.626707185399466	-0.2309885662134451	-0.08986092551931238	-0.4363280020239454	1.515816265973494	1.515816265973228	-0.1527269595685096	0.1717103200846851	0.4344992027365646	0.1126256156703685	0.05623864238232253	0.001761298340289239	0.1232194425227521	-0.3476674076540859	0.01229184395162309	-0.01557968610433307	0.0009160534756295512	-0.3492587172671525	-0.349258717267164	0.0631074036914025	0.005302836247717124	-0.06765973737067653	-0.005941386343863659	-0.3157444748074876	0.009185434865439757	0.0009420022813481426	-0.5296427784923297	0.01781498657165019	0.011890032965883	0.3230401067094437	-0.04306621687879739	-44.69684436316749	-4.255462540081723	2.958234853350678	20.38846790389421	-823.1386878236684	65.94910236236827	1.163368829006843	0.01154780876576942	2.104782493535435	-6.073460829888288	0.1939595334185379	-0.1027476779852275	0.141809243853873	-5.968161613541174	-5.968161613542376	1.271966997106934	0.093535829377194	-1.246190321357097	-0.1692483861409629	4.093747526543855e-08	7.671909256901544e-08	2.636321072742889e-07	3.638573841374368e-07	-4.174313954655342e-08	-4.981583401177045e-08	6.115339726841446e-07
1.06	-0.3353948610022714	-0.02095514368458203	0.6118496165387718	1.622927082830504	-0.2308560023914518	-0.09002345350297629	-0.436310256388707	1.51202530972685	1.512025309726476	-0.1520338301026336	0.1717681940391966	0.4337602921733162	0.1125576860834259	0.06779721952749497	0.001956690384908752	0.1442170945297363	-0.4082934300571497	0.01421426628032805	-0.01693231550973883	0.002812490227000251	-0.4089113098625832	-0.4089113098626026	0.07551609498148268	0.006265575095310296	-0.08012178804929673	-0.007655378420889215	-0.3162070731328674	0.009208330488397313	0.001181488354342334	-0.528570618381527	0.0177446303962756	0.01186167736488434	0.3236872214329239	-0.04311310722149884	-44.71294854406575	-4.248389169426358	2.931740132514285	20.14439985026316	-823.2257563947683	65.96058260746923	1.15360402811136	0.02776629690479919	2.095798798806085	-6.058815906694344	0.1907031506010389	-0.1984298116075111	0.2314875414970716	-5.965804713602529	-5.965804713602465	1.179411299413989	0.1034655640641575	-1.246411981102467	-0.1726152456170854	4.561259123706116e-08	8.666007900372062e-08	2.969551463097287e-07	4.098169795955162e-07	-4.901908508009906e-08	-5.54865662003111e-08	6.831251142944642e-07
1.07	-0.3346599423513409	-0.02093390302612231	0.6133961807071001	1.618542507410906	-0.230704425572397	-0.09019991797047874	-0.4362683442241415	1.507638672401669	1.507638672401343	-0.1512169413612635	0.1718355028756527	0.432896776918022	0.1124722781558386	0.07916288969885478	0.002322477458789919	0.1650664742945033	-0.4685603720142582	0.01609219186505901	-0.01836851278190163	0.005734893772108136	-0.4683735791101221	-0.4683735791101212	0.08785524465105547	0.007186439625909889	-0.09258077756179549	-0.009440570475671881	-0.3163247862123074	0.009179482591847445	0.001497486195673118	-0.5271495631066623	0.01792156123268798	0.01181041097752673	0.3240640474455543	-0.04316402716664521	-44.61615093602791	-4.228125403651474	2.899291030220828	19.78001996745884	-822.7878488858211	65.94982618353676	1.124523288974924	0.04562891723848159	2.075105555795792	-6.00142392293535	0.1850645670831333	-0.1173690160551888	0.3473594238786152	-5.930061728536807	-5.930061728533804	1.2601944416834	0.08505752852023798	-1.245568765302953	-0.183520285352997	5.021337314000272e-08	9.661990408322345e-08	3.299200650793843e-07	4.552664702486409e-07	-5.655774102479084e-08	-6.10248979963048e-08	7.537368477551684e-07
1.08	-0.3338120720432316	-0.02090807569600202	0.6151503582711729	1.613557104455194	-0.2305343240365601	-0.09039097527690979	-0.4361922594915514	1.502658687644371	1.502658687644092	-0.1502768555950058	0.1719117524836077	0.4319086865018069	0.1123686084877147	0.09038755096327997	0.002874024717022992	0.1857397736786183	-0.5284589372800174	0.01791920963674988	-0.01985088329544521	0.009647003831654309	-0.5275807962859508	-0.5275807962859301	0.100155499958807	0.008053729395004719	-0.1050368202334693	-0.01130772652822021	-0.3164424992917501	0.009150634695298646	0.001813484036995745	-0.5257285078317981	0.01809849206910096	0.01175914459017137	0.3244408734581818	-0.04322557381700035	-44.52820802822451	-4.204938995052895	2.86126622503449	19.44143767770167	-822.4821132123362	65.9731913805566	1.125402246724441	0.0649183337751809	2.060582722675681	-5.985140568424507	0.1805215879930205	-0.207664459883668	0.4294288443847221	-5.914794299260498	-5.91479429926053	1.171632427049738	0.09275061176320669	-1.245822612937475	-0.1890080451702198	5.320103013191793e-08	1.03056383617414e-07	3.527463185023657e-07	4.868770849484777e-07	-6.15216514671987e-08	-6.511700684932476e-08	7.98145556344784e-07
